<mxfile host="app.diagrams.net" agent="Mozilla/5.0 (Windows NT 10.0; Win64; x64) AppleWebKit/537.36 (KHTML, like Gecko) Chrome/134.0.0.0 Safari/537.36" version="26.1.1">
  <diagram name="PÃ¡gina-1" id="zSsrNwPbZkB5MbL4ZMpY">
    <mxGraphModel grid="1" page="1" gridSize="10" guides="1" tooltips="1" connect="1" arrows="1" fold="1" pageScale="1" pageWidth="827" pageHeight="1169" math="0" shadow="0">
      <root>
        <mxCell id="0" />
        <mxCell id="1" parent="0" />
        <mxCell id="DeTmEuOH4QnX3js_am0L-3" value="" style="edgeStyle=orthogonalEdgeStyle;rounded=0;orthogonalLoop=1;jettySize=auto;html=1;" edge="1" parent="1" source="DeTmEuOH4QnX3js_am0L-1" target="DeTmEuOH4QnX3js_am0L-2">
          <mxGeometry relative="1" as="geometry" />
        </mxCell>
        <mxCell id="DeTmEuOH4QnX3js_am0L-1" value="inicio" style="ellipse;whiteSpace=wrap;html=1;fillColor=#d5e8d4;strokeColor=#82b366;" vertex="1" parent="1">
          <mxGeometry x="354" y="70" width="120" height="80" as="geometry" />
        </mxCell>
        <mxCell id="DeTmEuOH4QnX3js_am0L-5" value="" style="edgeStyle=orthogonalEdgeStyle;rounded=0;orthogonalLoop=1;jettySize=auto;html=1;" edge="1" parent="1" source="DeTmEuOH4QnX3js_am0L-2" target="DeTmEuOH4QnX3js_am0L-4">
          <mxGeometry relative="1" as="geometry" />
        </mxCell>
        <mxCell id="DeTmEuOH4QnX3js_am0L-2" value="valor, qtde" style="shape=parallelogram;perimeter=parallelogramPerimeter;whiteSpace=wrap;html=1;fixedSize=1;fillColor=#d5e8d4;strokeColor=#82b366;" vertex="1" parent="1">
          <mxGeometry x="354" y="240" width="120" height="60" as="geometry" />
        </mxCell>
        <mxCell id="DeTmEuOH4QnX3js_am0L-7" value="" style="edgeStyle=orthogonalEdgeStyle;rounded=0;orthogonalLoop=1;jettySize=auto;html=1;" edge="1" parent="1" source="DeTmEuOH4QnX3js_am0L-4" target="DeTmEuOH4QnX3js_am0L-6">
          <mxGeometry relative="1" as="geometry" />
        </mxCell>
        <mxCell id="DeTmEuOH4QnX3js_am0L-4" value="venda = valor*qtde&lt;div&gt;comissao = (venda *5)/100&lt;/div&gt;" style="whiteSpace=wrap;html=1;fillColor=#d5e8d4;strokeColor=#82b366;" vertex="1" parent="1">
          <mxGeometry x="334" y="380" width="160" height="60" as="geometry" />
        </mxCell>
        <mxCell id="DeTmEuOH4QnX3js_am0L-9" value="" style="edgeStyle=orthogonalEdgeStyle;rounded=0;orthogonalLoop=1;jettySize=auto;html=1;" edge="1" parent="1" source="DeTmEuOH4QnX3js_am0L-6" target="DeTmEuOH4QnX3js_am0L-8">
          <mxGeometry relative="1" as="geometry" />
        </mxCell>
        <mxCell id="DeTmEuOH4QnX3js_am0L-6" value="comissao" style="shape=document;whiteSpace=wrap;html=1;boundedLbl=1;fillColor=#d5e8d4;strokeColor=#82b366;" vertex="1" parent="1">
          <mxGeometry x="354" y="510" width="120" height="80" as="geometry" />
        </mxCell>
        <mxCell id="DeTmEuOH4QnX3js_am0L-8" value="fim" style="ellipse;whiteSpace=wrap;html=1;fillColor=#d5e8d4;strokeColor=#82b366;" vertex="1" parent="1">
          <mxGeometry x="374" y="670" width="80" height="80" as="geometry" />
        </mxCell>
      </root>
    </mxGraphModel>
  </diagram>
</mxfile>
